<svg xmlns="http://www.w3.org/2000/svg" viewBox="0 0 512 512" width="100%" height="100%">
  <defs>
    <linearGradient id="flowGrad" x1="0%" y1="0%" x2="100%" y2="100%">
      <stop offset="0%" stop-color="#aa3bff" />
      <stop offset="100%" stop-color="#7c3aed" />
    </linearGradient>
    <filter id="shadow" x="-10%" y="-10%" width="120%" height="120%">
      <drop-shadow dx="0" dy="8" stdDeviation="12" flood-color="#000000" flood-opacity="0.3" />
    </filter>
  </defs>
  <!-- Background for maskable icon -->
  <rect width="512" height="512" rx="112" fill="#121316" />
  
  <!-- Icon Graphics -->
  <g transform="translate(56, 56) scale(0.78)" filter="url(#shadow)">
    <!-- Book pages background -->
    <path d="M64 128C64 92.7 92.7 64 128 64H232C245.3 64 256 74.7 256 88V376C256 362.7 245.3 352 232 352H128C92.7 352 64 380.7 64 416V128Z" fill="url(#flowGrad)" opacity="0.8" />
    <path d="M448 128C448 92.7 419.3 64 384 64H280C266.7 64 256 74.7 256 88V376C256 362.7 266.7 352 280 352H384C419.3 352 448 380.7 448 416V128Z" fill="url(#flowGrad)" />
    
    <!-- Flowing curves overlay representing panel flow -->
    <path d="M128 140C160 140 192 160 220 190" stroke="#ffffff" stroke-width="16" stroke-linecap="round" fill="none" opacity="0.9" />
    <path d="M128 220C160 220 192 240 220 270" stroke="#ffffff" stroke-width="16" stroke-linecap="round" fill="none" opacity="0.9" />
    <path d="M292 190C320 160 352 140 384 140" stroke="#ffffff" stroke-width="16" stroke-linecap="round" fill="none" opacity="0.9" />
    <path d="M292 270C320 240 352 220 384 220" stroke="#ffffff" stroke-width="16" stroke-linecap="round" fill="none" opacity="0.9" />
    
    <!-- Page curl edge highlight -->
    <path d="M64 416C64 380.7 92.7 352 128 352H232V384H128C110.3 384 96 398.3 96 416C96 433.7 110.3 448 128 448H232V480H128C92.7 480 64 451.3 64 416Z" fill="#ffffff" opacity="0.2" />
    <path d="M448 416C448 380.7 419.3 352 384 352H280V384H384C401.7 384 416 398.3 416 416C416 433.7 401.7 448 384 448H280V480H384C419.3 480 448 451.3 448 416Z" fill="#ffffff" opacity="0.3" />
  </g>
</svg>